# xmcd
#
# Track frame offsets: 
#        150
#        15543
#        41261
#        55758
#        72188
#        93482
#        107274
#
# Disc length: 1607 seconds
#
# Revision: 0
# Processed by: cddbd v1.5.2PL0 Copyright (c) Steve Scherf et al.
# Submitted via: ExactAudioCopyFreeDBPlugin 1.0
#
DISCID=49064507
DTITLE=Dining Room Diplomats - Dining Room Diplomats
DYEAR=2012
DGENRE=Blues Rock
TTITLE0=The Hunter
TTITLE1=Skipping Town
TTITLE2=Hansel And Gretsch
TTITLE3=In The Garden | The Truth
TTITLE4=Month Of May
TTITLE5=Seeds
TTITLE6=Convince Me
EXTD=
EXTT0=
EXTT1=
EXTT2=
EXTT3=
EXTT4=
EXTT5=
EXTT6=
PLAYORDER=
